# Blender v2.79 (sub 0) OBJ File: ''
# www.blender.org
mtllib disk02.mtl
o LargeHelperDisk_x3_thickness
v -1.003404 0.000000 4.719949
v -1.962957 0.000000 4.408228
v -0.000000 0.000000 4.825400
v -2.836718 0.000000 3.903845
v -3.586509 0.000000 3.228836
v -4.179542 0.000000 2.412700
v -4.589890 0.000000 1.491129
v -4.799664 0.000000 0.504392
v -4.799664 0.000000 -0.504393
v -4.589890 0.000000 -1.491129
v -4.179542 0.000000 -2.412700
v -3.586508 0.000000 -3.228836
v -2.836717 0.000000 -3.903845
v -1.962956 0.000000 -4.408228
v -1.003403 0.000000 -4.719949
v 0.000000 0.000000 -4.825400
v 1.003404 0.000000 -4.719949
v 1.962957 0.000000 -4.408228
v 2.836718 0.000000 -3.903845
v 3.586509 0.000000 -3.228836
v 4.179542 0.000000 -2.412700
v 4.589890 0.000000 -1.491129
v 4.799664 0.000000 -0.504392
v 4.799664 0.000000 0.504393
v 4.589890 0.000000 1.491129
v 4.179542 0.000000 2.412700
v 3.586508 0.000000 3.228836
v 2.836717 0.000000 3.903845
v 1.962956 0.000000 4.408228
v 1.003403 0.000000 4.719949
v -1.003403 0.579048 -4.719949
v 0.000000 0.579048 -4.825400
v -1.962956 0.579048 -4.408228
v -0.000000 0.579048 4.825400
v -1.003404 0.579048 4.719949
v 1.003403 0.579048 4.719949
v 1.962956 0.579048 4.408228
v 2.836717 0.579048 3.903845
v 3.586508 0.579048 3.228836
v 4.179542 0.579048 2.412700
v 4.589890 0.579048 1.491129
v 4.799664 0.579048 0.504393
v 4.799664 0.579048 -0.504392
v 4.589890 0.579048 -1.491129
v 4.179542 0.579048 -2.412700
v 3.586509 0.579048 -3.228836
v 2.836718 0.579048 -3.903845
v 1.962957 0.579048 -4.408228
v 1.003404 0.579048 -4.719949
v -2.836717 0.579048 -3.903845
v -3.586508 0.579048 -3.228836
v -4.179542 0.579048 -2.412700
v -4.589890 0.579048 -1.491129
v -4.799664 0.579048 -0.504393
v -4.799664 0.579048 0.504392
v -4.589890 0.579048 1.491129
v -4.179542 0.579048 2.412700
v -3.586509 0.579048 3.228836
v -2.836718 0.579048 3.903845
v -1.962957 0.579048 4.408228
vn 0.0000 -1.0000 0.0000
vn -0.1045 0.0000 -0.9945
vn -0.3090 0.0000 -0.9511
vn -0.1045 0.0000 0.9945
vn 0.1045 0.0000 0.9945
vn 0.3090 0.0000 0.9511
vn 0.4999 0.0000 0.8661
vn 0.6691 0.0000 0.7432
vn 0.8090 0.0000 0.5878
vn 0.9135 0.0000 0.4068
vn 0.9781 0.0000 0.2079
vn 1.0000 0.0000 0.0000
vn 0.9781 0.0000 -0.2079
vn 0.9135 0.0000 -0.4068
vn 0.8090 0.0000 -0.5878
vn 0.6691 0.0000 -0.7432
vn 0.4999 0.0000 -0.8661
vn 0.3090 0.0000 -0.9511
vn 0.1045 0.0000 -0.9945
vn -0.4999 0.0000 -0.8661
vn -0.6691 0.0000 -0.7432
vn -0.8090 0.0000 -0.5878
vn -0.9135 0.0000 -0.4068
vn -0.9781 0.0000 -0.2079
vn -1.0000 0.0000 0.0000
vn -0.9781 0.0000 0.2079
vn -0.9135 0.0000 0.4068
vn -0.8090 0.0000 0.5878
vn -0.6691 0.0000 0.7432
vn -0.4999 0.0000 0.8661
vn -0.3090 0.0000 0.9511
vn 0.0000 1.0000 0.0000
usemtl None
s off
f 1//1 2//1 3//1
f 3//1 2//1 4//1
f 3//1 4//1 5//1
f 3//1 5//1 6//1
f 3//1 6//1 7//1
f 3//1 7//1 8//1
f 3//1 8//1 9//1
f 3//1 9//1 10//1
f 3//1 10//1 11//1
f 3//1 11//1 12//1
f 3//1 12//1 13//1
f 3//1 13//1 14//1
f 3//1 14//1 15//1
f 3//1 15//1 16//1
f 3//1 16//1 17//1
f 3//1 17//1 18//1
f 3//1 18//1 19//1
f 3//1 19//1 20//1
f 3//1 20//1 21//1
f 3//1 21//1 22//1
f 3//1 22//1 23//1
f 3//1 23//1 24//1
f 3//1 24//1 25//1
f 3//1 25//1 26//1
f 3//1 26//1 27//1
f 3//1 27//1 28//1
f 3//1 28//1 29//1
f 3//1 29//1 30//1
f 15//2 31//2 32//2
f 16//2 15//2 32//2
f 14//3 33//3 31//3
f 15//3 14//3 31//3
f 34//4 35//4 3//4
f 3//4 35//4 1//4
f 30//5 36//5 3//5
f 3//5 36//5 34//5
f 29//6 37//6 30//6
f 30//6 37//6 36//6
f 28//7 38//7 29//7
f 29//7 38//7 37//7
f 27//8 39//8 28//8
f 28//8 39//8 38//8
f 27//9 26//9 40//9
f 39//9 27//9 40//9
f 26//10 25//10 41//10
f 40//10 26//10 41//10
f 25//11 24//11 42//11
f 41//11 25//11 42//11
f 24//12 23//12 43//12
f 42//12 24//12 43//12
f 23//13 22//13 44//13
f 43//13 23//13 44//13
f 22//14 21//14 45//14
f 44//14 22//14 45//14
f 21//15 20//15 46//15
f 45//15 21//15 46//15
f 20//16 19//16 47//16
f 46//16 20//16 47//16
f 19//17 18//17 48//17
f 47//17 19//17 48//17
f 18//18 17//18 49//18
f 48//18 18//18 49//18
f 17//19 16//19 32//19
f 49//19 17//19 32//19
f 13//20 50//20 33//20
f 14//20 13//20 33//20
f 12//21 51//21 50//21
f 13//21 12//21 50//21
f 52//22 51//22 11//22
f 11//22 51//22 12//22
f 53//23 52//23 10//23
f 10//23 52//23 11//23
f 54//24 53//24 9//24
f 9//24 53//24 10//24
f 55//25 54//25 8//25
f 8//25 54//25 9//25
f 56//26 55//26 7//26
f 7//26 55//26 8//26
f 57//27 56//27 6//27
f 6//27 56//27 7//27
f 58//28 57//28 5//28
f 5//28 57//28 6//28
f 59//29 58//29 4//29
f 4//29 58//29 5//29
f 60//30 59//30 2//30
f 2//30 59//30 4//30
f 35//31 60//31 1//31
f 1//31 60//31 2//31
f 34//32 36//32 37//32
f 39//32 34//32 38//32
f 38//32 34//32 37//32
f 40//32 34//32 39//32
f 41//32 34//32 40//32
f 42//32 34//32 41//32
f 43//32 34//32 42//32
f 44//32 34//32 43//32
f 45//32 34//32 44//32
f 46//32 34//32 45//32
f 47//32 34//32 46//32
f 48//32 34//32 47//32
f 49//32 34//32 48//32
f 32//32 34//32 49//32
f 31//32 34//32 32//32
f 33//32 34//32 31//32
f 50//32 34//32 33//32
f 51//32 34//32 50//32
f 52//32 34//32 51//32
f 53//32 34//32 52//32
f 54//32 34//32 53//32
f 55//32 34//32 54//32
f 56//32 34//32 55//32
f 57//32 34//32 56//32
f 58//32 34//32 57//32
f 59//32 34//32 58//32
f 60//32 34//32 59//32
f 35//32 34//32 60//32
